<?xml version="1.0" encoding="utf-8"?>
<!-- Generator: Adobe Illustrator 19.1.0, SVG Export Plug-In . SVG Version: 6.00 Build 0)  -->
<svg version="1.1" id="Layer_1" xmlns="http://www.w3.org/2000/svg" xmlns:xlink="http://www.w3.org/1999/xlink" x="0px" y="0px"
	 viewBox="-273 365 64 64" style="enable-background:new -273 365 64 64;" xml:space="preserve">
<style type="text/css">
	.st0{fill:#FFFFFF;stroke:#808080;stroke-width:0.5;stroke-miterlimit:10;}
</style>
<g id="instagram">
	<rect x="-224.2" y="394" class="st0" width="0.1" height="2.6"/>
	<path class="st0" d="M-232.6,381.6h-16.9c-4.6,0-8.4,3.8-8.4,8.4v3l0,0v2.6l0,0V394h8.1c1.4-3.2,4.5-5.4,8.2-5.4s6.9,2.2,8.2,5.4
		l0,0h9.1v-4C-224.2,385.2-227.9,381.6-232.6,381.6z M-227.2,391h-5.4v-5.4h5.4V391z"/>
	<path class="st0" d="M-232.6,396.7c0,0.3,0.1,0.6,0.1,0.9c0,5-4,9-9,9s-9-4-9-9c0-0.3,0.1-0.6,0.1-0.9h-7.4v7.4
		c0,4.6,3.8,8.4,8.4,8.4h16.9c4.6,0,8.4-3.8,8.4-8.4v-7.4H-232.6L-232.6,396.7z"/>
	<path class="st0" d="M-241.5,403c3,0,5.4-2.4,5.4-5.4c0-0.3,0-0.6-0.1-0.9l0,0c-0.2-1-0.6-1.9-1.3-2.6l0,0c-1-1.1-2.4-1.8-4-1.8
		s-3,0.7-4,1.8c-0.7,0.7-1.1,1.6-1.3,2.6c-0.1,0.3-0.1,0.6-0.1,0.9C-246.9,400.6-244.5,403-241.5,403z"/>
</g>
</svg>
